<?xml version="1.0" encoding="UTF-8" standalone="no"?>
<!DOCTYPE svg PUBLIC "-//W3C//DTD SVG 1.1//EN" "http://www.w3.org/Graphics/SVG/1.1/DTD/svg11.dtd">
<svg width="100%" height="100%" viewBox="0 0 384 274" version="1.1" xmlns="http://www.w3.org/2000/svg" xmlns:xlink="http://www.w3.org/1999/xlink" xml:space="preserve" xmlns:serif="http://www.serif.com/" style="fill-rule:evenodd;clip-rule:evenodd;stroke-linejoin:round;stroke-miterlimit:2;">
    <g id="Ebene_2">
        <g id="Ebene_2-2">
            <path d="M179.92,31.19C187.197,29.911 194.643,29.911 201.92,31.19C202.217,30.994 202.425,30.688 202.5,30.34C203.5,26.17 210.12,25.23 209.5,15.08C209.29,11.81 205.93,6.64 201.81,6.64C199.52,6.642 197.355,7.702 195.95,9.51C193.3,6.65 193.21,1.59 191.71,0.35C191.52,0.128 191.242,-0 190.95,-0C190.658,-0 190.38,0.128 190.19,0.35C188.7,1.59 188.6,6.65 185.96,9.51C184.551,7.702 182.383,6.642 180.09,6.64C175.98,6.64 172.61,11.81 172.4,15.08C171.74,25.23 178.4,26.17 179.4,30.34C179.46,30.678 179.646,30.982 179.92,31.19ZM203.92,19.93C205.51,16.12 204.47,12.39 205.09,12.66C205.71,12.93 207.4,17.25 205.81,21.05C204.22,24.85 199.95,26.69 199.33,26.43C198.71,26.17 202.29,23.73 203.88,19.93L203.92,19.93ZM198.39,19.05C199.47,15.05 197.94,11.51 198.59,11.69C199.24,11.87 201.48,15.93 200.4,19.91C199.32,23.89 195.34,26.27 194.69,26.1C194.04,25.93 197.27,23 198.35,19.05L198.39,19.05ZM190.84,10.69L190.99,10.69C191.48,10.69 193.69,14.28 193.56,18.52C193.507,21.145 192.609,23.685 191,25.76C189.391,27.835 191,25.76 191,25.76C189.365,23.694 188.443,21.153 188.37,18.52C188.14,14.28 190.35,10.72 190.84,10.69ZM183.33,11.69C183.99,11.51 182.46,15.07 183.54,19.05C184.62,23.03 187.89,25.92 187.24,26.1C186.59,26.28 182.6,23.89 181.52,19.91C180.44,15.93 182.64,11.86 183.29,11.69L183.33,11.69ZM176.12,21.05C174.52,17.25 176.2,12.92 176.83,12.66C177.46,12.4 176.41,16.12 178,19.93C179.59,23.74 183.22,26.17 182.6,26.43C181.98,26.69 177.67,24.85 176.08,21.05L176.12,21.05Z" style="fill:white;fill-rule:nonzero;"/>
            <path d="M158.91,77.33C158.914,77.31 158.914,77.29 158.91,77.27" style="fill:rgb(26,26,24);fill-rule:nonzero;"/>
            <path d="M255.15,169.88C234.26,172.01 212.52,168.31 191.9,161.64C152.38,149.38 96.07,164.57 76.39,176.85C75.1,177.66 94.39,167.72 128.65,164.21C149.54,162.08 171.28,165.78 191.9,172.45C231.42,184.72 287.73,169.52 307.41,157.24C308.7,156.43 289.41,166.38 255.15,169.88Z" style="fill:white;fill-rule:nonzero;"/>
            <path d="M312,56.34C311.571,56.02 311.021,55.906 310.5,56.03C309.63,56.11 308.87,56.22 308.13,56.33C306.616,56.6 305.077,56.707 303.54,56.65C302.985,56.684 302.434,56.537 301.97,56.23C301.927,56.188 301.905,56.13 301.91,56.07C302.01,54.51 302.47,52.56 303.49,51.78L303.59,51.7L303.52,51.6C303.124,51.087 302.401,50.945 301.84,51.27C301.323,51.586 300.904,52.039 300.63,52.58C300.338,53.094 300.1,53.637 299.92,54.2C299.711,55.003 299.306,55.742 298.74,56.35C297.74,57.35 295.04,57.47 294.34,56.8C293.613,56.025 293.33,54.93 293.59,53.9C293.775,53.281 294.055,52.694 294.42,52.16C294.672,51.806 294.868,51.414 295,51C294.844,50.592 294.436,50.331 294,50.36C292.7,50.51 290.8,52.87 290.12,56.01C288.729,56.33 287.276,56.264 285.92,55.82L285.35,55.69C283.86,55.36 283.98,53.15 284.06,52.48C284.24,50.76 286,49.48 286.94,48.79C287.41,48.45 287.55,48.34 287.57,48.21C287.517,47.89 287.282,47.628 286.97,47.54C285.97,47.21 284.15,47.88 283.02,48.98C281.958,50.138 281.229,51.562 280.91,53.1C280.866,53.294 280.809,53.484 280.74,53.67C280.106,53.703 279.475,53.579 278.9,53.31C276.62,52.31 275.51,51.54 275.42,50.87C275.419,50.324 275.486,49.779 275.62,49.25C278.11,47.67 282.72,46.59 285.82,46.39L286.26,46.39C288.452,46.172 290.661,46.188 292.85,46.44L293.31,46.51C294.117,46.69 294.947,46.741 295.77,46.66C296.463,46.521 297.136,46.293 297.77,45.98C298.224,45.769 298.692,45.589 299.17,45.44C300.04,45.248 300.935,45.201 301.82,45.3C302.928,45.465 304.06,45.334 305.1,44.92C305.966,44.375 306.703,43.648 307.26,42.79C307.43,42.56 307.6,42.34 307.77,42.14C308.13,41.7 308.65,41.14 309.16,40.55C310.83,38.67 311.16,38.28 311.08,38.09L311.08,38.02L311.03,38.02C310.03,37.51 308.28,38.92 306.44,40.41C305.622,40.985 304.775,41.516 303.9,42C303.273,42.447 302.52,42.685 301.75,42.68C300.991,42.649 300.33,42.137 300.11,41.41C300.062,40.705 300.284,40.008 300.73,39.46C301.115,38.918 301.359,38.289 301.44,37.63L301.44,37.56L301.38,37.56C300.53,37.08 298.78,38.98 298.38,39.63C297.682,40.691 297.304,41.93 297.29,43.2C297.282,43.421 297.18,43.628 297.01,43.77C296.64,44.05 296.01,43.92 295.54,43.84L295.46,43.84C294.481,43.736 293.589,43.228 293,42.44C292.1,41.27 292.79,38.9 293.13,37.76C293.3,37.18 293.33,37.05 293.24,36.94C293.15,36.83 293.06,36.87 292.9,36.94C291.722,37.455 290.787,38.404 290.29,39.59C290.098,40.42 289.994,41.268 289.98,42.12C289.997,42.665 289.922,43.209 289.76,43.73C287.725,43.979 285.666,43.948 283.64,43.64C283.45,43.54 283.26,42.9 283.09,41.73L283.09,41.61C282.82,39.83 284.35,37.48 284.93,36.61C285.17,36.25 285.19,36.22 285.15,36.13C285.11,36.04 285.01,35.91 284.74,35.94C283.15,36.425 281.86,37.601 281.23,39.14C280.653,40.915 280.834,42.852 281.73,44.49C280.99,44.62 280.04,44.88 279.11,45.14C278.18,45.4 277.03,45.7 276.28,45.82C276.305,45.698 276.322,45.574 276.33,45.45C276.368,44.642 276.628,43.86 277.08,43.19C278.33,41.465 279.339,39.578 280.08,37.58C280.82,35.24 279.95,30.74 279.41,30.26C279.338,30.21 279.242,30.21 279.17,30.26C278.8,31.223 278.565,32.233 278.47,33.26C278.19,35.12 277.83,37.42 276.81,38.88C276.515,39.267 276.18,39.623 275.81,39.94C275.56,40.19 275.29,40.44 275.05,40.73C274.011,42.052 273.363,43.639 273.18,45.31C272.821,43.469 273.078,41.561 273.91,39.88C274.08,39.62 274.25,39.37 274.43,39.12C275.058,38.242 275.585,37.296 276,36.3C276.455,35.41 276.517,34.368 276.17,33.43C276.027,33.073 275.746,32.787 275.39,32.64C275.26,32.69 275.16,32.9 274.89,33.54C274.688,34.061 274.44,34.563 274.15,35.04C273.891,35.402 273.596,35.737 273.27,36.04C273.06,36.24 272.84,36.45 272.65,36.67C270.29,39.36 269.73,44.21 270.54,47.46C269.34,47.1 263.84,46.13 261.14,46.54C259.89,46.73 252.68,46.64 251.84,46.93C248.25,48.16 249.3,52.45 250.68,53.18C252.137,53.997 253.671,54.667 255.26,55.18C256.668,55.5 257.887,56.382 258.63,57.62C256.37,60.69 252.99,61.44 250.74,61.94L249.92,62.12C248.038,62.547 246.131,62.854 244.21,63.04C242.81,63.2 241.36,63.38 239.93,63.64C238.403,63.988 236.989,64.718 235.82,65.76C235.03,66.432 234.372,67.246 233.88,68.16C233.25,67.33 231.93,65.04 230.88,63.16C230.06,61.75 229.42,60.64 229.21,60.37C228.21,59.13 227.33,58.24 225.48,58.98C224.963,59.206 224.571,59.649 224.41,60.19C224.23,60.63 223.6,61.75 223.05,63.14C222.95,63.41 222.39,64.76 221.68,66.42C219.4,49.96 212.68,36.91 201.8,32.01C198.278,32.894 194.661,33.341 191.03,33.34C187.365,33.346 183.714,32.896 180.16,32C169.23,36.92 162.51,50 160.25,66.6C160.06,66.2 159.89,65.81 159.73,65.45C159.09,63.97 158.59,62.8 158.23,62.15C157.757,61.287 157.031,60.589 156.15,60.15C155.768,59.942 155.311,59.92 154.91,60.09C153.96,60.52 150.5,67.09 149.11,68.88C148.557,68.018 147.884,67.24 147.11,66.57C145.787,65.302 144.178,64.369 142.42,63.85C141.071,63.551 139.705,63.334 138.33,63.2C136.687,63.054 135.06,62.759 133.47,62.32C131.31,61.68 126.61,59.52 124.28,55.89C124.5,55.73 124.71,55.57 124.88,55.42C125.6,54.78 133.88,52.65 134.75,51.42C135.6,49.93 133.15,47.53 132.03,47.03C130.56,46.38 123.4,45.2 121.75,44.87C119.46,44.42 115.04,44.97 113.33,45.32C113.218,45.339 113.103,45.297 113.03,45.21C112.948,45.117 112.922,44.988 112.96,44.87C113.872,41.901 113.666,38.698 112.38,35.87C111.324,33.853 110.162,31.894 108.9,30C108.604,29.73 108.174,29.663 107.81,29.83C107.606,30.014 107.478,30.267 107.45,30.54C107.335,31.296 107.503,32.069 107.92,32.71C108.996,34.261 109.873,35.941 110.53,37.71C110.91,38.71 110.76,40.13 110.07,42.02C109.78,40.005 109.133,38.058 108.16,36.27C107.38,34.346 106.006,32.721 104.24,31.63C104.127,31.538 103.963,31.538 103.85,31.63C103.51,31.91 103.58,33.05 104.05,34.84C104.324,35.686 104.679,36.503 105.11,37.28C105.81,38.66 107.8,42.09 107.19,43.18C106.551,42.949 105.956,42.611 105.43,42.18C104.851,41.729 104.193,41.39 103.49,41.18C103.509,38.96 102.943,36.773 101.85,34.84C101.14,33.35 98.69,31.49 97.85,31.39C97.741,31.382 97.635,31.432 97.57,31.52C97.515,31.623 97.515,31.747 97.57,31.85C97.65,32.06 97.8,32.43 98,32.85C98.787,34.743 99.455,36.684 100,38.66C100.36,40.1 100.32,40.98 100.1,41.07C98.9,41.192 97.687,41.063 96.54,40.69C95.54,40.03 94.98,38.63 94.54,37.4C94.43,37.1 94.33,36.82 94.22,36.55C93.432,35.111 92.133,34.019 90.58,33.49C90.474,33.458 90.359,33.494 90.29,33.58C90.231,33.682 90.231,33.808 90.29,33.91C90.37,34.07 90.48,34.29 90.62,34.55C91.44,36.12 93.15,39.39 92.15,40.43C91.76,40.83 91.15,40.83 90.06,40.83C89.132,40.848 88.219,40.598 87.43,40.11C87.003,39.666 86.709,39.112 86.58,38.51C86.335,37.635 85.946,36.808 85.43,36.06C84.77,35.06 83.04,33.51 82.23,33.94L82.23,34C82.083,34.743 82.352,35.51 82.93,36C83.45,36.608 83.817,37.331 84,38.11C84.079,38.454 84.014,38.815 83.82,39.11C83.622,39.396 83.307,39.58 82.96,39.61C81.808,39.693 80.651,39.557 79.55,39.21C78.226,38.753 77.052,37.94 76.16,36.86C75.52,36.16 75.06,35.65 74.35,35.98C74.286,35.993 74.233,36.039 74.21,36.1C74.21,36.21 74.07,36.48 75.79,38.8C76.477,39.861 77.368,40.775 78.41,41.49C79.411,41.946 80.516,42.125 81.61,42.01C82.481,41.947 83.357,42.032 84.2,42.26C84.664,42.427 85.115,42.627 85.55,42.86C86.149,43.199 86.792,43.455 87.46,43.62C88.417,43.688 89.379,43.658 90.33,43.53C92.489,43.371 94.658,43.449 96.8,43.76L97.22,43.76C100.22,44.09 104.58,45.17 106.94,46.85C106.878,47.256 106.746,47.649 106.55,48.01C105.389,49.385 103.669,50.168 101.87,50.14C101.584,49.915 101.323,49.66 101.09,49.38C100.123,48.364 99.091,47.412 98,46.53C96.828,45.573 95.309,45.146 93.81,45.35C93.693,45.387 93.607,45.488 93.59,45.61C93.59,45.76 93.77,45.89 94.54,46.41C95.71,47.21 97.66,48.54 98.37,50C98.692,50.615 98.767,51.331 98.58,52C98.35,52.451 97.919,52.766 97.42,52.85C95.897,53.28 94.294,53.349 92.74,53.05C92.417,52.965 92.14,52.757 91.97,52.47C90.97,50.98 87.75,46.15 85.97,46.26C85.658,46.287 85.386,46.489 85.27,46.78L85.27,46.86C85.35,47.6 86.81,49.56 87.27,50.14C88.27,51.42 89.17,53.14 88.52,53.7C87.87,54.26 85.2,54.08 84.22,53.07C83.115,51.84 82.111,50.523 81.22,49.13C80.714,48.454 80.103,47.863 79.41,47.38C78.876,47.023 78.149,47.137 77.75,47.64L77.75,47.81C78.91,48.81 81.2,51.81 81.22,53.05C81.232,53.079 81.232,53.111 81.22,53.14C80.287,53.313 79.336,53.364 78.39,53.29C76.678,53.357 74.963,53.256 73.27,52.99C72.765,52.842 72.219,52.935 71.79,53.24C71.664,53.349 71.623,53.528 71.69,53.68C71.85,54.12 72.69,54.59 74.1,54.59C75.906,54.72 77.69,55.056 79.42,55.59C82.335,56.478 85.374,56.893 88.42,56.82C88.65,56.82 90.32,56.58 90.99,56.46C91.66,56.34 94.44,56 94.91,56C95.578,56.027 96.247,55.997 96.91,55.91C98.804,55.701 100.67,55.295 102.48,54.7C103.767,54.144 105.025,53.523 106.25,52.84C107.64,52.1 108.37,51.71 109.25,51.84C108.86,51.962 108.494,52.151 108.17,52.4C107.816,52.719 107.513,53.09 107.27,53.5C107.111,53.756 106.934,54 106.74,54.23C105.903,54.963 104.917,55.506 103.85,55.82C103.11,56.1 102.85,56.22 102.74,56.43C102.63,56.64 103.18,57.62 104.45,57.89C105.493,58.072 106.554,58.126 107.61,58.05C108.067,58.015 108.521,57.952 108.97,57.86C109.65,63.34 112.21,65.19 114.69,66.98C114.97,67.17 116.09,67.98 116.39,68.22C118.84,70.02 121.39,71.89 122.83,74.63C124.712,78.271 124.192,82.713 121.52,85.82C120.693,86.641 119.781,87.371 118.8,88L118.4,88.28C115.778,90.055 113.321,92.063 111.06,94.28C109.319,96.258 107.715,98.353 106.26,100.55C104.86,102.71 100.85,104.41 98.92,105.23C98.539,105.349 98.179,105.524 97.85,105.75C97.85,105.96 98.06,106.21 98.27,106.4C99.348,107.303 100.795,107.638 102.16,107.3C101.344,108.925 100.793,110.671 100.53,112.47C100.375,113.727 100.395,114.999 100.59,116.25C100.65,116.83 100.72,117.43 100.75,118.05C100.779,119.831 100.255,121.579 99.25,123.05C97.49,126.05 93.86,126.21 93.78,126.26C93.473,127.379 93.344,128.54 93.4,129.7C93.4,132.25 94.33,136.33 94.27,138.37L94.27,141.97C94.27,143.27 93.97,144.21 95.27,144.55C95.895,144.793 96.503,145.077 97.09,145.4C97.82,145.76 98.77,148.49 99.3,148.64C100.182,148.71 101.068,148.71 101.95,148.64C102.95,148.57 103.82,148.44 103.95,148.22C104.08,148 103.46,147.15 102.2,145.94C100.888,144.761 99.819,143.338 99.05,141.75C98.621,140.784 98.286,139.78 98.05,138.75C97.496,136.754 97.545,134.638 98.19,132.67C98.61,131.67 99.47,129.55 100.82,129.04C104.17,127.76 104.82,127.21 105.82,126.31C106.02,126.13 107.58,124.89 108.21,124.44C110.93,122.44 114.58,119.82 115.57,115.18C116.91,117.48 119.57,121.49 123.37,123.92C124.92,124.92 124.65,126.76 124.51,127.65C124.554,128.112 124.697,128.559 124.93,128.96C125.47,130.05 126.28,131.7 127.22,132.14C131.8,134.31 132.45,138.59 136.06,142.71C136.24,142.92 137.25,144.31 137.99,144.48C138.16,144.48 139.6,144.37 139.74,144.48C140.174,144.94 140.547,145.454 140.85,146.01C141.77,147.55 142.63,147.67 144.24,147.59C144.34,147.59 147.29,147.47 147.29,147.4C147.29,147.13 147.12,145.96 145.43,145.27C142.19,143.93 137.85,138.45 136.55,136.97C135.47,135.73 133.36,132.42 132.38,131.2C130.12,128.34 130.38,126.6 131.06,125.15C131.35,124.53 131.685,123.932 132.06,123.36C132.87,122.09 133.64,120.88 133.29,119.99C132.877,119.128 132.392,118.301 131.84,117.52L131.76,117.4C131.03,116.3 130.33,115.23 129.65,114.18C127.18,110.42 125.05,107.18 123.1,104.63C124.69,104.04 125.89,103.71 127.04,103.4C129.043,102.913 130.99,102.22 132.85,101.33C136.19,99.766 139.275,97.706 142,95.22C143.2,93.812 144.262,92.292 145.17,90.68L145.58,90.02C146.83,90.57 150.18,92.67 150.7,92.4C151.249,91.999 151.743,91.529 152.17,91C152.846,90.167 153.645,89.442 154.54,88.85C155.936,87.943 157.184,86.826 158.24,85.54C158.171,87.188 157.854,88.816 157.3,90.37C156.713,91.701 155.989,92.968 155.14,94.15C154.61,94.89 152.24,95.98 151.4,97.15C150.67,98.15 151.99,99.15 152.56,100.15C153.56,100.88 153.99,100.77 154.06,100.72C156.533,98.822 158.512,96.355 159.83,93.53C159.97,93.24 160.08,92.94 160.2,92.65C163.2,116.99 174.2,141.98 190.92,141.98C207.43,141.98 218.4,117.59 221.53,93.53C222.53,95.53 224.59,97.64 226.22,99.78C227.56,101.52 229.22,103.22 230.01,103.31L230.16,103.31C230.3,103.31 231.64,99.96 230.4,97.53C229.79,96.31 227.34,95.73 226.88,95.04C226.289,94.162 225.761,93.243 225.3,92.29C224.53,90.83 223.53,85.18 224.25,83.55C225.376,85.117 226.67,86.555 228.11,87.84C229.25,88.96 231.11,91.29 231.4,91.46C232.035,91.742 232.778,91.637 233.31,91.19C234.181,90.448 235.176,89.865 236.25,89.47C237.408,91.344 238.708,93.126 240.14,94.8C242.635,97.25 245.513,99.276 248.66,100.8C250.4,101.7 252.21,102.53 253.96,103.32C255.71,104.11 257.56,104.99 259.34,105.91C258.4,108.6 255.63,111.3 252.7,114.15C250.825,115.95 249.053,117.853 247.39,119.85C247.03,120.67 247.83,121.75 248.69,122.85C249.214,123.492 249.661,124.193 250.02,124.94C250.5,126.12 250.1,127.02 249.3,128.81C249.03,129.43 248.72,130.13 248.38,130.97C248.04,131.81 245.38,134.11 243.84,134.97C242.84,135.56 242.62,135.97 241.84,136.37C241.06,136.77 240.42,138.67 239.55,139.13C238.069,140.14 236.668,141.264 235.36,142.49C234.568,143.147 233.654,143.64 232.67,143.94C232.1,144.15 231.82,144.26 231.73,144.43C231.686,144.614 231.629,144.794 231.56,144.97C231.37,145.53 231.15,146.15 231.56,146.41C231.875,146.554 232.214,146.639 232.56,146.66C232.89,146.66 233.23,146.72 233.56,146.73L234.05,146.73C235.71,146.89 236.79,146.73 237.78,145.2C237.898,145.02 237.998,144.829 238.08,144.63C238.204,144.265 238.433,143.944 238.74,143.71C239.077,143.675 239.417,143.709 239.74,143.81C240.009,143.891 240.289,143.928 240.57,143.92C241.025,143.899 241.423,143.601 241.57,143.17C241.693,142.91 241.855,142.671 242.05,142.46C246.3,138.1 249.05,133.53 253.67,132.04L253.9,131.97C255.02,131.62 256.09,131.24 256.29,130.82C256.669,129.869 256.807,128.838 256.69,127.82C256.63,126.32 256.58,124.91 258.19,123.57C259.416,122.796 260.681,122.085 261.98,121.44C264.163,120.165 266.006,118.381 267.35,116.24C268.348,120.255 270.649,123.829 273.89,126.4C275.2,127.47 277.89,129.25 277.89,129.25C279.65,130.25 281.47,131.25 282.48,133.02C283.49,134.79 283.08,137.76 282.53,139.95C281.479,142.1 280.133,144.093 278.53,145.87C277.825,146.284 277.156,146.755 276.53,147.28C276.02,148.11 276.75,148.34 277.92,148.86C278.908,149.083 279.911,149.236 280.92,149.32C281.42,149.32 281.54,149.09 281.62,148.4C281.62,148.08 281.84,147.26 281.84,147.26C282.07,146.52 282.5,145.15 283.13,145.08C283.3,145.08 284.49,145.66 284.73,145.64C286.03,145.48 286.15,144.08 286.24,143.15C286.525,140.628 286.525,138.082 286.24,135.56C286.132,135.098 286.075,134.625 286.07,134.15C286.17,133.76 287.53,132.28 287.62,131.9C287.839,130.382 287.754,128.835 287.37,127.35C287.31,127.3 283.73,126.55 281.96,123.91C281.1,122.64 281.28,121.21 281.47,119.69C281.47,119.36 281.62,118.39 281.62,118.39C281.81,116.49 282.02,114.33 281.17,112.66C280.95,112.23 279.17,109.46 279.3,108.34C280.768,108.752 282.348,108.423 283.53,107.46C283.72,107.3 284.17,106.93 284.14,106.67C283.813,106.431 283.452,106.243 283.07,106.11C281.15,105.21 277.14,103.33 275.81,101.11C274.421,98.852 272.881,96.69 271.2,94.64C268.991,92.336 266.578,90.238 263.99,88.37C262.937,87.584 261.935,86.733 260.99,85.82C258.346,82.645 257.95,78.137 260,74.55C261.59,71.87 264.27,70.12 266.85,68.42C267.16,68.22 273.46,63.42 274.61,59.91L275.16,59.99C276.156,60.109 277.164,60.109 278.16,59.99C279.47,59.77 279.99,58.9 279.96,58.57C279.93,58.24 279.61,58.26 278.86,57.94C277.796,57.59 276.82,57.013 276,56.25C275.815,56.01 275.645,55.76 275.49,55.5C275.493,55.473 275.493,55.447 275.49,55.42L275.63,54.52C276.742,55.247 277.925,55.86 279.16,56.35C279.84,56.65 280.54,56.95 281.34,57.35C282.757,57.995 284.254,58.448 285.79,58.7C286.504,58.812 287.227,58.858 287.95,58.84C288.558,58.825 289.166,58.852 289.77,58.92C290.464,59.023 291.149,59.177 291.82,59.38C292.422,59.552 293.033,59.692 293.65,59.8L294.21,59.87C297.37,60.22 300.38,59.41 303.3,58.62C305.437,57.917 307.67,57.546 309.92,57.52C311.29,57.59 311.92,57.23 312.1,56.87C312.184,56.691 312.144,56.476 312,56.34ZM120.63,50.17C119.984,50.79 119.204,51.252 118.35,51.52C117.83,51.73 116.79,51 117.75,50.12C118.87,49.12 119.61,48.48 120.18,48.62C120.75,48.76 121.6,49.23 120.63,50.17ZM158.63,78.39C157.9,79.32 150.79,85.39 150.53,84.28C149.96,81.79 152.53,79.95 152,74.28C151.93,73.53 155.15,68.03 156,67.75C156.62,67.75 157.44,69.17 158.47,71.01L159.61,73.01C159.51,74.48 159.45,76.01 159.42,77.48C159.113,77.755 158.835,78.059 158.59,78.39L158.63,78.39ZM175.33,98.3C175.3,99.002 174.714,99.564 174.011,99.564C173.977,99.564 173.944,99.563 173.91,99.56L172.67,99.56C172.643,99.562 172.615,99.563 172.588,99.563C171.882,99.563 171.291,99.005 171.25,98.3L171.25,62.44C171.291,61.735 171.882,61.177 172.588,61.177C172.615,61.177 172.643,61.178 172.67,61.18L173.91,61.18C173.944,61.177 173.977,61.176 174.011,61.176C174.714,61.176 175.3,61.738 175.33,62.44L175.33,78.33L181.75,78.33L185.28,82.41L175.33,82.41L175.33,98.3ZM200,110.38C197.407,112.917 193.885,114.284 190.26,114.16C181.82,114.16 178.03,107.33 177.35,101.48C177.286,100.91 177.669,100.379 178.23,100.26L180.07,99.84C180.385,99.767 180.717,99.833 180.98,100.02C181.233,100.206 181.4,100.488 181.44,100.8C181.69,102.97 183.05,110.03 190.26,110.03C192.777,110.154 195.237,109.23 197.05,107.48C198.805,105.604 199.766,103.119 199.73,100.55C199.65,95.63 192.31,87.73 189.54,84.75L188.37,83.49C185.18,80.07 179.25,73.71 179.32,68.3C179.38,63.67 182.49,56.8 190.82,56.8C197.82,56.8 201.08,62.46 201.71,67.31C201.785,67.883 201.405,68.426 200.84,68.55L199,69C198.92,69.018 198.838,69.027 198.755,69.027C198.174,69.027 197.683,68.579 197.63,68C197.36,65.87 196.16,60.91 190.82,60.91C184.82,60.91 183.48,66.27 183.46,68.33C183.41,72.08 189,78.08 191.39,80.64L192.57,81.91C195.92,85.52 203.76,93.91 203.87,100.46C203.93,104.145 202.54,107.71 200,110.38ZM210.6,98.3C210.57,99.002 209.984,99.564 209.281,99.564C209.247,99.564 209.214,99.563 209.18,99.56L207.94,99.56C207.206,99.6 206.568,99.033 206.52,98.3L206.52,82.41L194.73,82.41L191.2,78.33L206.52,78.33L206.52,62.44C206.568,61.707 207.206,61.14 207.94,61.18L209.18,61.18C209.214,61.177 209.247,61.176 209.281,61.176C209.984,61.176 210.57,61.738 210.6,62.44L210.6,98.3ZM233.18,84.62C232.62,86.4 229.3,82.49 228.55,81.91C228.55,81.91 224.99,78.76 224.63,78.29C224.115,77.575 223.498,76.938 222.8,76.4C222.67,76.315 222.533,76.241 222.39,76.18C222.39,75.03 222.3,73.9 222.22,72.78C223.78,69.87 226.13,65.33 226.67,65.14L226.72,65.14C226.979,67.161 227.359,69.165 227.86,71.14C228.48,73.01 231.86,82.14 232.36,83.14C232.66,83.74 233.72,85.36 233.18,84.62ZM265.37,52.29C264.509,52.118 263.698,51.752 263,51.22C261.91,50.41 262.69,49.83 263.25,49.63C263.81,49.43 264.61,49.93 265.85,50.83C266.85,51.58 265.91,52.43 265.37,52.29Z" style="fill:white;fill-rule:nonzero;"/>
            <path d="M0.2,226.74L1.74,224.1C1.921,223.802 2.246,223.62 2.594,223.62C2.804,223.62 3.01,223.687 3.18,223.81C3.4,223.93 6.84,226.44 9.6,226.44C11.81,226.44 13.47,225 13.48,223.17C13.48,221 11.66,219.51 8.09,218.07C4.09,216.45 0.09,213.9 0.09,208.88C0.09,205.1 2.91,200.72 9.67,200.72C12.726,200.778 15.693,201.77 18.17,203.56C18.604,203.892 18.713,204.509 18.42,204.97L16.8,207.39C16.529,207.936 15.859,208.165 15.31,207.9C14.97,207.69 11.74,205.56 9.41,205.56C7.08,205.56 5.66,207.18 5.66,208.56C5.66,210.56 7.23,211.92 10.66,213.32C14.78,214.98 19.54,217.45 19.53,222.93C19.53,227.32 15.73,231.35 9.73,231.35C6.315,231.437 2.988,230.241 0.41,228C0,227.63 -0.18,227.42 0.2,226.74Z" style="fill:white;fill-rule:nonzero;"/>
            <path d="M28.91,202C28.925,201.562 29.282,201.205 29.72,201.19L33.72,201.19C34.164,201.19 34.53,201.556 34.53,202L34.53,219.39C34.53,223.01 36.98,225.86 40.68,225.86C40.705,225.86 40.731,225.86 40.756,225.86C44.13,225.86 46.906,223.084 46.906,219.71C46.906,219.617 46.904,219.523 46.9,219.43L46.9,202C46.9,201.556 47.266,201.19 47.71,201.19L51.71,201.19C52.15,201.2 52.51,201.56 52.52,202L52.52,219.69C52.335,226.058 47.046,231.196 40.675,231.196C34.304,231.196 29.015,226.058 28.83,219.69L28.91,202ZM32.79,195.28C32.79,193.799 34.009,192.58 35.49,192.58C36.971,192.58 38.19,193.799 38.19,195.28C38.179,196.768 36.958,197.989 35.47,198C33.996,197.99 32.789,196.774 32.789,195.3C32.789,195.277 32.789,195.253 32.79,195.23L32.79,195.28ZM43.3,195.28C43.3,195.26 43.299,195.24 43.299,195.22C43.299,193.755 44.505,192.55 45.969,192.55C45.98,192.55 45.99,192.55 46,192.55C46.007,192.55 46.013,192.55 46.02,192.55C47.494,192.55 48.709,193.756 48.72,195.23C48.72,195.24 48.72,195.25 48.72,195.26C48.72,196.756 47.496,197.989 46,198C45.996,198 45.993,198 45.989,198C44.513,198 43.299,196.786 43.299,195.31C43.299,195.283 43.299,195.257 43.3,195.23L43.3,195.28Z" style="fill:white;fill-rule:nonzero;"/>
            <path d="M64.21,202C64.204,201.568 64.549,201.206 64.98,201.19L75.06,201.19C75.189,201.187 75.317,201.185 75.446,201.185C83.614,201.185 90.336,207.907 90.336,216.075C90.336,224.243 83.614,230.965 75.446,230.965C75.317,230.965 75.189,230.963 75.06,230.96L64.93,230.96C64.499,230.944 64.154,230.582 64.16,230.15L64.21,202ZM74.51,225.77C79.722,225.603 83.918,221.27 83.918,216.055C83.918,210.84 79.722,206.507 74.51,206.34L69.69,206.34L69.69,225.77L74.51,225.77Z" style="fill:white;fill-rule:nonzero;"/>
            <path d="M99.85,202C99.855,201.558 100.218,201.195 100.66,201.19L110.4,201.19C115.46,201.19 119.4,204.59 119.4,209.06C119.4,212.33 116.71,214.88 114.71,215.82C116.96,216.54 120.23,218.82 120.23,222.75C120.23,227.51 116.13,230.96 110.94,230.96L100.61,230.96C100.607,230.96 100.603,230.96 100.6,230.96C100.166,230.96 99.81,230.603 99.81,230.17C99.81,230.163 99.81,230.157 99.81,230.15L99.85,202ZM110.44,225.94C110.45,225.94 110.46,225.94 110.47,225.94C112.561,225.94 114.28,224.22 114.28,222.13C114.28,222.11 114.28,222.09 114.28,222.07C114.28,219.94 112.16,218.37 109.95,218.37L105.31,218.37L105.31,225.94L110.44,225.94ZM109.87,213.69C109.878,213.69 109.886,213.69 109.894,213.69C111.891,213.69 113.534,212.047 113.534,210.05C113.534,209.99 113.533,209.93 113.53,209.87C113.533,209.815 113.534,209.76 113.534,209.705C113.534,207.806 111.972,206.245 110.074,206.245C110.009,206.245 109.945,206.246 109.88,206.25L105.33,206.25L105.33,213.69L109.87,213.69Z" style="fill:white;fill-rule:nonzero;"/>
            <path d="M126.43,229.8L139.71,201.18C139.833,200.894 140.119,200.711 140.43,200.72L140.86,200.72C141.173,200.702 141.464,200.888 141.58,201.18L154.58,229.8C154.641,229.911 154.674,230.036 154.674,230.163C154.674,230.574 154.335,230.913 153.924,230.913C153.902,230.913 153.881,230.912 153.86,230.91L150.16,230.91C149.606,230.94 149.097,230.589 148.93,230.06L146.85,225.47L134.18,225.47L132.09,230.06C131.897,230.575 131.4,230.916 130.85,230.91L127.15,230.91C127.129,230.912 127.108,230.913 127.086,230.913C126.675,230.913 126.336,230.574 126.336,230.163C126.336,230.036 126.369,229.911 126.43,229.8ZM144.82,220.75L140.58,211.39L140.45,211.39L136.27,220.75L144.82,220.75Z" style="fill:white;fill-rule:nonzero;"/>
            <path d="M162.8,202C162.81,201.56 163.17,201.2 163.61,201.19L167.56,201.19C168.004,201.19 168.37,201.556 168.37,202L168.37,213.27L182.24,213.27L182.24,202C182.245,201.558 182.608,201.195 183.05,201.19L187,201.19C187.436,201.206 187.79,201.563 187.8,202L187.8,230.15C187.79,230.59 187.43,230.95 186.99,230.96L183,230.96C182.997,230.96 182.993,230.96 182.99,230.96C182.556,230.96 182.2,230.603 182.2,230.17C182.2,230.163 182.2,230.157 182.2,230.15L182.2,218.41L168.34,218.41L168.34,230.15C168.34,230.594 167.974,230.96 167.53,230.96L163.58,230.96C163.14,230.95 162.78,230.59 162.77,230.15L162.8,202Z" style="fill:white;fill-rule:nonzero;"/>
            <path d="M199.76,201.48C199.781,201.053 200.142,200.714 200.57,200.72L201.63,200.72L219.29,219.51L219.29,201.95C219.29,201.506 219.656,201.14 220.1,201.14L224.02,201.14C224.456,201.156 224.81,201.513 224.82,201.95L224.82,230.57C224.799,230.997 224.438,231.336 224.01,231.33L223.01,231.33L205.27,211.81L205.27,230.1C205.27,230.544 204.904,230.91 204.46,230.91L200.59,230.91C200.15,230.9 199.79,230.54 199.78,230.1L199.76,201.48Z" style="fill:white;fill-rule:nonzero;"/>
            <path d="M236.89,202C236.9,201.56 237.26,201.2 237.7,201.19L241.7,201.19C242.144,201.19 242.51,201.556 242.51,202L242.51,213.27L256.3,213.27L256.3,202C256.3,201.997 256.3,201.993 256.3,201.99C256.3,201.551 256.661,201.19 257.1,201.19L261.02,201.19C261.456,201.206 261.81,201.563 261.82,202L261.77,230.15C261.76,230.59 261.4,230.95 260.96,230.96L257.05,230.96C257.047,230.96 257.043,230.96 257.04,230.96C256.606,230.96 256.25,230.603 256.25,230.17C256.25,230.163 256.25,230.157 256.25,230.15L256.25,218.41L242.43,218.41L242.43,230.15C242.43,230.594 242.064,230.96 241.62,230.96L237.67,230.96C237.23,230.95 236.87,230.59 236.86,230.15L236.89,202Z" style="fill:white;fill-rule:nonzero;"/>
            <path d="M286.96,200.72L287.02,200.72C295.419,200.72 302.33,207.631 302.33,216.03C302.33,224.429 295.419,231.34 287.02,231.34C278.636,231.34 271.732,224.454 271.71,216.07C271.71,216.037 271.71,216.003 271.71,215.97C271.71,207.604 278.594,200.72 286.96,200.72ZM287,225.81C287.023,225.81 287.047,225.81 287.07,225.81C292.441,225.81 296.86,221.391 296.86,216.02C296.86,210.65 292.441,206.23 287.07,206.23C281.699,206.23 277.28,210.65 277.28,216.02C277.28,216.037 277.28,216.053 277.28,216.07C277.323,221.389 281.681,225.756 287,225.81Z" style="fill:white;fill-rule:nonzero;"/>
            <path d="M315.82,206.24L309.31,206.24C308.871,206.24 308.51,205.879 308.51,205.44L308.51,202C308.51,201.556 308.876,201.19 309.32,201.19L327.91,201.19C328.349,201.19 328.71,201.551 328.71,201.99C328.71,201.993 328.71,201.997 328.71,202L328.71,205.49C328.71,205.929 328.349,206.29 327.91,206.29C327.907,206.29 327.903,206.29 327.9,206.29L321.39,206.29L321.39,230.15C321.38,230.59 321.02,230.95 320.58,230.96L316.58,230.96C316.14,230.95 315.78,230.59 315.77,230.15L315.82,206.24Z" style="fill:white;fill-rule:nonzero;"/>
            <path d="M337.39,202C337.39,201.556 337.756,201.19 338.2,201.19L355.51,201.19C355.954,201.19 356.32,201.556 356.32,202L356.32,205.49C356.32,205.929 355.959,206.29 355.52,206.29C355.517,206.29 355.513,206.29 355.51,206.29L342.91,206.29L342.91,213.29L353.41,213.29C353.85,213.3 354.21,213.66 354.22,214.1L354.22,217.63C354.209,218.069 353.849,218.425 353.41,218.43L342.89,218.43L342.89,225.88L355.48,225.88C355.919,225.88 356.28,226.241 356.28,226.68L356.28,230.17C356.28,230.614 355.914,230.98 355.47,230.98L338.15,230.98C337.706,230.98 337.34,230.614 337.34,230.17L337.39,202Z" style="fill:white;fill-rule:nonzero;"/>
            <path d="M366.65,202C366.65,201.556 367.016,201.19 367.46,201.19L371.37,201.19C371.81,201.2 372.17,201.56 372.18,202L372.18,225.86L383,225.86C383.003,225.86 383.007,225.86 383.01,225.86C383.449,225.86 383.81,226.221 383.81,226.66L383.81,230.15C383.81,230.153 383.81,230.157 383.81,230.16C383.81,230.599 383.449,230.96 383.01,230.96L367.41,230.96C366.966,230.96 366.6,230.594 366.6,230.15L366.65,202Z" style="fill:white;fill-rule:nonzero;"/>
            <path d="M56.19,269L56.57,268.49C56.87,268.15 57.17,268.02 57.51,268.32C59.658,270.31 62.445,271.473 65.37,271.6C69.24,271.6 72.52,269 72.52,265.9C72.52,262.11 69.41,260.41 64.27,258.67C59.34,256.92 56.06,255.18 56.06,250.29C56.06,247.1 58.61,242.76 65.25,242.76C67.848,242.811 70.38,243.587 72.56,245C72.742,245.11 72.854,245.309 72.854,245.522C72.854,245.655 72.81,245.784 72.73,245.89C72.602,246.068 72.489,246.255 72.39,246.45C72.288,246.66 72.074,246.794 71.841,246.794C71.703,246.794 71.568,246.747 71.46,246.66C69.59,245.444 67.428,244.753 65.2,244.66C59.97,244.66 58.02,247.89 58.02,250.32C58.02,253.93 60.78,255.5 65.08,256.91C70.9,258.91 74.6,260.91 74.6,265.91C74.6,270.16 70.22,273.48 65.33,273.48C62.009,273.436 58.812,272.197 56.33,269.99C56.06,269.72 55.85,269.51 56.19,269Z" style="fill:white;fill-rule:nonzero;"/>
            <path d="M85.32,243.78C85.325,243.477 85.577,243.23 85.88,243.23L102.93,243.23C103.232,243.23 103.48,243.478 103.48,243.78L103.48,244.5C103.48,244.803 103.233,245.055 102.93,245.06L87.36,245.06L87.36,256.79L100.84,256.79C101.145,256.795 101.395,257.045 101.4,257.35L101.4,258.07C101.395,258.373 101.143,258.62 100.84,258.62L87.36,258.62L87.36,271.21L102.93,271.21C103.232,271.21 103.48,271.458 103.48,271.76L103.48,272.44C103.48,272.743 103.233,272.995 102.93,273L85.88,273C85.575,272.995 85.325,272.745 85.32,272.44L85.32,243.78Z" style="fill:white;fill-rule:nonzero;"/>
            <path d="M189.77,243.78C189.77,243.478 190.018,243.23 190.32,243.23L207.37,243.23C207.673,243.23 207.925,243.477 207.93,243.78L207.93,244.5C207.925,244.805 207.675,245.055 207.37,245.06L191.81,245.06L191.81,256.79L205.29,256.79C205.593,256.795 205.84,257.047 205.84,257.35L205.84,258.07C205.84,258.372 205.592,258.62 205.29,258.62L191.81,258.62L191.81,271.21L207.37,271.21C207.673,271.21 207.925,271.457 207.93,271.76L207.93,272.44C207.925,272.745 207.675,272.995 207.37,273L190.32,273C190.017,272.995 189.77,272.743 189.77,272.44L189.77,243.78Z" style="fill:white;fill-rule:nonzero;"/>
            <path d="M219.45,243.78C219.45,243.777 219.45,243.773 219.45,243.77C219.45,243.473 219.694,243.23 219.99,243.23C219.997,243.23 220.003,243.23 220.01,243.23L230.55,243.23C230.695,243.223 230.841,243.22 230.987,243.22C235.99,243.22 240.107,247.336 240.107,252.34C240.107,256.578 237.152,260.285 233.02,261.23L239.23,272.23C239.44,272.57 239.36,273 238.93,273L237.61,273C237.349,273.015 237.108,272.856 237.02,272.61L230.85,261.47L221.45,261.47L221.45,272.4C221.432,272.716 221.167,272.965 220.851,272.965C220.824,272.965 220.797,272.964 220.77,272.96L220,272.96C219.695,272.955 219.445,272.705 219.44,272.4L219.45,243.78ZM230.45,259.78C230.48,259.78 230.51,259.781 230.54,259.781C234.607,259.781 237.958,256.446 237.98,252.38C237.874,248.424 234.591,245.227 230.633,245.227C230.558,245.227 230.484,245.228 230.41,245.23L221.47,245.23L221.47,259.78L230.45,259.78Z" style="fill:white;fill-rule:nonzero;"/>
            <path d="M251.35,243.78C251.355,243.477 251.607,243.23 251.91,243.23L252.84,243.23C253.142,243.23 253.39,243.478 253.39,243.78L253.39,272.44C253.385,272.749 253.129,273 252.82,273C252.813,273 252.807,273 252.8,273L251.91,273C251.605,272.995 251.355,272.745 251.35,272.44L251.35,243.78Z" style="fill:white;fill-rule:nonzero;"/>
            <path d="M266.66,243.35C266.674,243.042 266.931,242.797 267.239,242.797C267.26,242.797 267.28,242.798 267.3,242.8L268,242.8L288.42,269.38L288.42,243.78C288.425,243.48 288.67,243.235 288.97,243.23L289.82,243.23C290.123,243.23 290.375,243.477 290.38,243.78L290.38,272.87C290.38,273.25 290.04,273.42 289.7,273.42L289.14,273.42C289.14,273.42 288.76,273.29 268.56,246.59L268.56,272.44C268.555,272.745 268.305,272.995 268,273L267.2,273C266.895,272.995 266.645,272.745 266.64,272.44L266.66,243.35Z" style="fill:white;fill-rule:nonzero;"/>
            <path d="M317,242.8C320.821,242.73 324.52,244.168 327.29,246.8C327.497,247.009 327.497,247.351 327.29,247.56C327.076,247.812 326.849,248.052 326.61,248.28C326.36,248.58 326.14,248.54 325.89,248.28C323.457,245.984 320.235,244.706 316.89,244.71C309.68,244.907 303.856,250.892 303.856,258.105C303.856,265.318 309.68,271.303 316.89,271.5C320.004,271.602 323.08,270.792 325.74,269.17L325.74,261.17L318.47,261.17C318,261.17 317.92,261 317.92,260.62L317.92,259.77C317.92,259.43 318,259.26 318.47,259.26L327.19,259.26C327.475,259.264 327.715,259.486 327.74,259.77L327.74,269.63C327.769,270.084 327.535,270.516 327.14,270.74C324.052,272.56 320.524,273.501 316.94,273.46C308.541,273.46 301.63,266.549 301.63,258.15C301.63,249.751 308.541,242.84 316.94,242.84C316.94,242.84 317,242.8 317,242.8Z" style="fill:white;fill-rule:nonzero;"/>
            <path d="M177.21,242.85L177,242.85L165.09,257.31L153.17,242.85L153.01,242.85C152.724,242.906 152.514,243.158 152.51,243.45L152.51,272.37C152.51,272.716 152.794,273 153.14,273L154,273C154.346,273 154.63,272.716 154.63,272.37L154.63,247.84L164.91,260.31L165.3,260.31L175.59,247.84L175.59,272.37C175.59,272.716 175.874,273 176.22,273L177.05,273C177.396,273 177.68,272.716 177.68,272.37L177.68,243.45C177.683,243.166 177.487,242.915 177.21,242.85Z" style="fill:white;fill-rule:nonzero;"/>
            <path d="M138.63,242.85L138.47,242.85L126.55,257.31L114.64,242.85L114.47,242.85C114.185,242.907 113.979,243.16 113.98,243.45L113.98,272.37C113.98,272.716 114.264,273 114.61,273L115.44,273C115.786,273 116.07,272.716 116.07,272.37L116.07,247.84L126.36,260.31L126.75,260.31L137,247.84L137,272.37C137,272.716 137.284,273 137.63,273L138.47,273C138.816,273 139.1,272.716 139.1,272.37L139.1,243.45C139.099,243.167 138.905,242.918 138.63,242.85Z" style="fill:white;fill-rule:nonzero;"/>
        </g>
    </g>
</svg>
