<svg xmlns="http://www.w3.org/2000/svg" viewBox="0 0 36.01 27.89"><defs><style>.cls-1{fill:#686464;}</style></defs><g id="Ebene_2" data-name="Ebene 2"><g id="Ebene_1-2" data-name="Ebene 1"><path id="Icon_simple-minutemailer" data-name="Icon simple-minutemailer" class="cls-1" d="M8.35,0l5.18,5.6L9.88,12.8l7.71-1.38,3.51,8.47L36,.33ZM7.4,12.13,8.83,11,7,11.54l-.19-.27.77-.75-1,.4a10.21,10.21,0,0,0-3.35,17,10.09,10.09,0,0,1-1.33-5,10.47,10.47,0,0,1,6.47-9.63l.47-1.15-1.12.5-.32-.43,0,0Zm6.54-3L16.34,5l14.1-3.31L13.94,9.18Z"/></g></g></svg>