<svg xmlns="http://www.w3.org/2000/svg" viewBox="0 0 107.98 107.98"><defs><style>.cls-1{fill:#fff;}.cls-2{fill:none;stroke:#717070;}.cls-3{fill:#be3928;}</style></defs><g id="Ebene_2" data-name="Ebene 2"><g id="Ebene_1-2" data-name="Ebene 1"><g id="Ellipse_2" data-name="Ellipse 2"><ellipse class="cls-1" cx="53.99" cy="54.18" rx="37.66" ry="36.69"/><ellipse class="cls-2" cx="53.99" cy="54.18" rx="37.16" ry="36.19"/></g><path id="Icon_awesome-play-circle" data-name="Icon awesome-play-circle" class="cls-3" d="M54,0a54,54,0,1,0,54,54h0A54,54,0,0,0,54,0ZM79.18,59.22l-38.32,22a5.24,5.24,0,0,1-7.77-4.57V31.35a5.25,5.25,0,0,1,5.25-5.23,5.18,5.18,0,0,1,2.52.66L79.18,50.07a5.26,5.26,0,0,1,2,7.14A5.39,5.39,0,0,1,79.18,59.22Z"/></g></g></svg>