<svg xmlns="http://www.w3.org/2000/svg" viewBox="0 0 31.5 31.5"><g id="Ebene_2" data-name="Ebene 2"><g id="Ebene_1-2" data-name="Ebene 1"><path id="Icon_awesome-pinterest-square" data-name="Icon awesome-pinterest-square" d="M31.5,3.38V28.12a3.38,3.38,0,0,1-3.38,3.38H10.86a18.13,18.13,0,0,0,1.92-4.17c.21-.81,1.08-4.11,1.08-4.11a4.61,4.61,0,0,0,4,2c5.21,0,9-4.79,9-10.74,0-5.7-4.66-10-10.65-10C8.68,4.5,4.73,9.5,4.73,15c0,2.53,1.35,5.68,3.5,6.68.33.16.5.09.58-.23s.35-1.41.48-1.95A.51.51,0,0,0,9.17,19,6.68,6.68,0,0,1,7.88,15a7.47,7.47,0,0,1,7.44-7.51h.36a6.81,6.81,0,0,1,7.2,6.41c0,.21,0,.41,0,.62,0,4.67-2.36,7.9-5.43,7.9a2.51,2.51,0,0,1-2.63-2.38,2.3,2.3,0,0,1,.07-.74c.48-2,1.43-4.27,1.43-5.75,0-3.73-5.31-3.22-5.31,1.76a6.26,6.26,0,0,0,.51,2.56C9.32,27.24,9,27.36,9.45,31.44l.15.06H3.38A3.38,3.38,0,0,1,0,28.12V3.38A3.38,3.38,0,0,1,3.38,0H28.12A3.38,3.38,0,0,1,31.5,3.38Z"/></g></g></svg>