<svg xmlns="http://www.w3.org/2000/svg" viewBox="0 0 31.5 31.5"><g id="Ebene_2" data-name="Ebene 2"><g id="Ebene_1-2" data-name="Ebene 1"><path id="Icon_awesome-linkedin" data-name="Icon awesome-linkedin" d="M29.25,0h-27A2.26,2.26,0,0,0,0,2.27v27A2.26,2.26,0,0,0,2.24,31.5h27a2.26,2.26,0,0,0,2.25-2.27v-27A2.26,2.26,0,0,0,29.25,0ZM9.52,27H4.85V12H9.53V27ZM7.19,9.91a2.71,2.71,0,1,1,2.7-2.7h0A2.7,2.7,0,0,1,7.19,9.91ZM27,27H22.35V19.69c0-1.75,0-4-2.42-4s-2.81,1.9-2.81,3.86V27H12.45V12h4.48v2H17a5,5,0,0,1,4.43-2.43c4.72,0,5.6,3.12,5.6,7.17Z"/></g></g></svg>