<?xml version="1.0" encoding="utf-8"?>
<svg width="86" height="128" xmlns="http://www.w3.org/2000/svg">
  <path fill="#FFF" d="M0 0h86v128H0z"/>
  <path fill="#333" d="M 2 2 L 84 2 L 84 18 L 2 18 L 2 2 Z M 2 30 L 84 30 L 84 100.007 L 1.856 100.006 L 2 30 Z M 2 110 L 28 110 L 28 126 L 2 126 L 2 110 Z M 30 110 L 56 110 L 56 126 L 30 126 L 30 110 Z M 58 110 L 84 110 L 84 126 L 58 126 L 58 110 Z M 2 17.993 L 84.144 17.851 L 84 28 L 2 28 L 2 17.993 Z M 2 100 L 84 100 L 84 108 L 2 108 L 2 100 Z"/>
</svg>