<svg xmlns="http://www.w3.org/2000/svg" viewBox="0 0 33 33"><defs><style>.cls-1{fill:none;stroke:#000;stroke-linecap:round;stroke-linejoin:round;stroke-width:3px;}</style></defs><g id="Ebene_2" data-name="Ebene 2"><g id="Ebene_1-2" data-name="Ebene 1"><g id="Icon_feather-instagram" data-name="Icon feather-instagram"><path id="Pfad_115" data-name="Pfad 115" class="cls-1" d="M9,1.5H24A7.5,7.5,0,0,1,31.5,9V24A7.5,7.5,0,0,1,24,31.5H9A7.5,7.5,0,0,1,1.5,24V9A7.5,7.5,0,0,1,9,1.5Z"/><path id="Pfad_116" data-name="Pfad 116" class="cls-1" d="M22.5,15.56a6,6,0,1,1-6.82-5.06,5.77,5.77,0,0,1,1.76,0A6,6,0,0,1,22.5,15.56Z"/><path id="Pfad_117" data-name="Pfad 117" class="cls-1" d="M24.75,8.25h0"/></g></g></g></svg>