<svg xmlns="http://www.w3.org/2000/svg" viewBox="1 0 27 27"><g id="Ebene_2" data-name="Ebene 2"><g id="Ebene_1-2" data-name="Ebene 1"><g id="Icon_ionic-ios-menu" data-name="Icon ionic-ios-menu"><path id="Pfad_101" data-name="Pfad 101" d="M25.88,4H1.12C.51,4,0,3.13,0,2H0C0,.91.51,0,1.12,0H25.88C26.49,0,27,.91,27,2h0C27,3.13,26.49,4,25.88,4Z"/><path id="Pfad_102" data-name="Pfad 102" d="M25.88,13.76H1.12c-.61,0-1.12-.91-1.12-2H0c0-1.11.51-2,1.12-2H25.88c.61,0,1.12.91,1.12,2h0C27,12.85,26.49,13.76,25.88,13.76Z"/><path id="Pfad_103" data-name="Pfad 103" d="M25.88,23.49H1.12c-.61,0-1.12-.91-1.12-2H0c0-1.11.51-2,1.12-2H25.88c.61,0,1.12.91,1.12,2h0C27,22.58,26.49,23.49,25.88,23.49Z"/></g></g></g></svg>