<svg xmlns="http://www.w3.org/2000/svg" viewBox="0 0 36 36"><g id="Ebene_2" data-name="Ebene 2"><g id="Ebene_1-2" data-name="Ebene 1"><path id="Icon_simple-tiktok" data-name="Icon simple-tiktok" d="M16.43,0c2,0,3.91,0,5.86,0a9.36,9.36,0,0,0,2.63,6.26,10.59,10.59,0,0,0,6.36,2.68V15A16.13,16.13,0,0,1,25,13.53a17.21,17.21,0,0,1-2.43-1.4c0,4.38,0,8.76,0,13.13a11.56,11.56,0,0,1-2,5.91A11.2,11.2,0,0,1,11.63,36a11,11,0,0,1-6.12-1.55A11.31,11.31,0,0,1,0,25.88c0-.76,0-1.5,0-2.24A11.28,11.28,0,0,1,12.37,13.52l.75.1c0,2.22-.06,4.44-.06,6.66A5.14,5.14,0,0,0,6.5,23.43v0a5.81,5.81,0,0,0-.21,2.42,5.1,5.1,0,0,0,5.25,4.3,5,5,0,0,0,4.15-2.42,3.38,3.38,0,0,0,.62-1.59c.15-2.68.09-5.35.1-8C16.41,12.09,16.38,6.06,16.43,0Z"/></g></g></svg>