<svg xmlns="http://www.w3.org/2000/svg" viewBox="0 0 36 36"><g id="Ebene_2" data-name="Ebene 2"><g id="Ebene_1-2" data-name="Ebene 1"><path id="Icon_simple-spotify" data-name="Icon simple-spotify" d="M18,0A18,18,0,1,0,36,18,18,18,0,0,0,18,0Zm8.28,26a1.07,1.07,0,0,1-1.46.4l-.07,0c-4.23-2.61-9.54-3.15-15.84-1.71a1.11,1.11,0,0,1-.54-2.16c6.84-1.53,12.78-.9,17.46,2a1.08,1.08,0,0,1,.5,1.45A.56.56,0,0,0,26.28,26Zm2.16-5a1.36,1.36,0,0,1-1.86.47l0,0A23.33,23.33,0,0,0,8.64,19.44a1.37,1.37,0,0,1-.81-2.61,26.34,26.34,0,0,1,20.25,2.43A1.27,1.27,0,0,1,28.47,21Zm.18-5C22.86,12.6,13.23,12.24,7.74,14a1.65,1.65,0,0,1-1-3.15c6.39-1.89,16.92-1.53,23.58,2.43A1.74,1.74,0,0,1,31,15.57a1.87,1.87,0,0,1-2.34.45Z"/></g></g></svg>