<svg xmlns="http://www.w3.org/2000/svg" viewBox="0 0 267.02 56.69"><defs><style>.cls-1,.cls-2{fill:#1d1d1b;}.cls-1{fill-rule:evenodd;}.cls-3{fill:#fff;}</style></defs><g id="Ebene_2" data-name="Ebene 2"><g id="Ebene_1-2" data-name="Ebene 1"><polygon class="cls-1" points="210.33 0 267.02 0 267.02 56.69 210.34 56.69 210.33 0 210.33 0"/><path class="cls-1" d="M16.73,42.38c4.6-.81,7.08-4.67,7.08-9.14,0-6.9-4.84-10-11.24-10H0V55.64H8.41V43.2H8.5l7.93,12.44H26.9L16.73,42.38ZM8.41,29.73h.82c2.74,0,5.83.51,5.83,4s-3.09,4-5.83,4H8.41V29.73Z"/><path class="cls-1" d="M38.78,39.68a4.79,4.79,0,0,1,5,5,4.7,4.7,0,0,1-5,4.93,4.7,4.7,0,0,1-5-4.93,4.78,4.78,0,0,1,5-5Zm12.57-6H43.54v2.15a9,9,0,0,0-6.82-2.88c-6.52,0-11,5.41-11,11.71s4.59,11.76,11.12,11.76c2.57,0,5.27-1,6.65-3.17h.08v2.44h7.81v-22Z"/><path class="cls-1" d="M62.63,33.63H54.82v22h7.81v-22ZM58.72,20.8a4.38,4.38,0,1,0,4.38,4.38,4.4,4.4,0,0,0-4.38-4.38Z"/><path class="cls-2" d="M74.62,40.07h5.45V33.63H74.62V30.07c0-2.49.69-3.69,2.71-3.69a6.61,6.61,0,0,1,2.74.73V20.37a6.92,6.92,0,0,0-3.34-.77A10,10,0,0,0,69,23.12c-2.14,2.44-2.23,4.67-2.23,7.72v2.79H64.07v6.44h2.74V55.64h7.81V40.07Z"/><path class="cls-2" d="M89.55,40.07H95V33.63H89.55V30.07c0-2.49.69-3.69,2.71-3.69a6.61,6.61,0,0,1,2.74.73V20.37a6.93,6.93,0,0,0-3.35-.77A10,10,0,0,0,84,23.12c-2.14,2.44-2.23,4.67-2.23,7.72v2.79H79v6.44h2.74V55.64h7.81V40.07Z"/><path class="cls-1" d="M102.21,41.44a4.68,4.68,0,0,1,9.05,0Zm16.3,3.69c0-7.51-4.42-12.23-12.05-12.23-7.17,0-12.19,4.42-12.19,11.76,0,7.59,5.45,11.71,12.74,11.71,5,0,10-2.36,11.2-7.55H110.7a3.9,3.9,0,0,1-3.73,2c-3.22,0-4.89-1.72-4.89-4.9h16.43v-.81Z"/><path class="cls-1" d="M128.16,33.63h-7.81v22h7.81v-22Zm-3.9-12.83a4.38,4.38,0,1,0,4.37,4.38,4.39,4.39,0,0,0-4.37-4.38Z"/><path class="cls-2" d="M148.74,34.32a17.47,17.47,0,0,0-7.25-1.42c-4.81,0-9.7,2.4-9.7,7.81,0,3.95,2.45,5.15,4.89,5.79s4.89.73,4.89,2.45c0,1.2-1.45,1.67-2.44,1.67A12.53,12.53,0,0,1,133,48.39l-2.83,5.45A17.07,17.07,0,0,0,139,56.37c5.11,0,10.38-2.4,10.38-8.19,0-4.08-2.74-5.8-6.39-6.53-1.07-.21-3.52-.42-3.52-1.93,0-1.11,1.55-1.5,2.45-1.5a9.72,9.72,0,0,1,4.2,1.07l2.62-5Z"/><path class="cls-1" d="M158.18,41.44a4.68,4.68,0,0,1,9,0Zm16.3,3.69c0-7.51-4.42-12.23-12-12.23-7.17,0-12.19,4.42-12.19,11.76,0,7.59,5.45,11.71,12.74,11.71,5,0,10-2.36,11.2-7.55h-7.51a3.9,3.9,0,0,1-3.73,2c-3.22,0-4.89-1.72-4.89-4.9h16.43v-.81Z"/><path class="cls-2" d="M184.13,33.63h-7.81v22h7.81V44.23c0-2.75.9-5.11,4.08-5.11,3.86,0,3.52,3.69,3.52,5.8V55.64h7.81V42c0-5.41-2.36-9.14-8.29-9.14a7.61,7.61,0,0,0-7,3.56h-.09V33.63Z"/><polygon class="cls-3" points="211.97 1.64 265.38 1.65 265.38 55.05 211.98 55.05 211.97 1.64 211.97 1.64"/><path class="cls-2" d="M238.67,34.82l17.05,17,6.66-6.67-17-17,3.32-3.31,0-6.67L251,15.8l0,5.49,2.3,2.3,8.34-8.33,2.23,2.23a15,15,0,0,0-4.37-10.25c-4.44-4.32-8.88-1.79-10.41-.26l-8.05,8,2,2-4.44,4.41L234.21,17l2-2-8.05-8c-1.53-1.53-6-4.06-10.41.26a14.75,14.75,0,0,0-4.29,10.24l2.18-2.19L224,23.6l2.31-2.32V15.8l2.38,2.37V24.8L232,28.12,215.07,45l6.69,6.69,16.91-16.88Z"/></g></g></svg>